<svg viewBox="38 35 250 50" fill="none" xmlns="http://www.w3.org/2000/svg">
      <g>
        <path
          d="M63.0501 36.4206C63.4607 35.8779 63.0493 35.3373 63.4259 34.8625C64.7191 34.6232 65.9434 34.8709 67.2234 34.9479C71.9637 35.2331 76.417 36.3587 80.3999 39.0342C82.854 40.7524 84.8785 42.9957 87.0612 45.0284C87.7495 45.6695 89.1812 45.8984 89.7592 46.5755C91.4699 48.5797 91.0064 50.5809 89.886 52.5868C95.8406 69.5452 82.8209 87.0033 64.8654 85.9624C60.3352 85.6998 55.4316 84.0925 51.744 81.4216C46.3772 77.5312 42.7973 71.6471 41.8086 65.0908C39.629 51.088 49.1171 38.5455 63.0501 36.4206Z"
          fill="#1B1724"
        />
        <path
          d="M63.0501 36.4204C63.3831 37.0448 63.242 39.2219 63.2023 40.0153C56.5715 41.8046 51.4234 44.0694 47.7862 50.4818C42.188 60.3517 45.2401 73.5767 55.1842 79.4474C65.1307 85.3194 78.7222 82.5513 84.5778 72.215C87.7475 66.62 88.4185 60.9704 86.6078 54.6894C86.5415 54.4573 86.461 54.2294 86.3669 54.0071C88.1034 53.7938 88.4248 53.5883 89.886 52.5866C95.8406 69.545 82.8209 87.0032 64.8654 85.9622C60.3352 85.6996 55.4316 84.0923 51.744 81.4214C46.3772 77.531 42.7973 71.6469 41.8086 65.0906C39.629 51.0878 49.1171 38.5453 63.0501 36.4204Z"
          fill="#FCFBFC"
        />
        <path
          d="M63.0503 36.4206C63.4609 35.8779 63.0494 35.3373 63.4261 34.8625C64.7193 34.6232 65.9436 34.8709 67.2236 34.9479C71.9639 35.2331 76.4172 36.3587 80.4001 39.0342C82.8542 40.7524 84.8787 42.9957 87.0614 45.0284C87.7497 45.6695 89.1814 45.8984 89.7593 46.5755C91.4701 48.5797 91.0066 50.5809 89.8861 52.5868C88.425 53.5885 88.1036 53.794 86.3671 54.0073C83.0795 53.4627 81.7978 52.1133 81.9452 48.6431C75.8239 42.0692 71.7973 41.5847 63.4835 41.1129C63.1684 40.8003 63.2523 40.5637 63.2025 40.0155C63.2422 39.2221 63.3832 37.0449 63.0503 36.4206Z"
          fill="#7B3AEE"
        />
        <path
          d="M163.946 51.1232C166.938 50.9163 167.79 51.3992 169.805 53.5678C170.383 52.8598 171.647 50.9775 172.607 51.6588C173.035 52.8231 171.57 58.0381 171.221 59.5508L167.483 75.3637C167.264 76.3224 166.972 77.6936 167.505 78.5439C171.416 80.9677 172.669 73.3753 173.707 71.0521C173.808 70.8241 174.288 70.8943 174.493 70.8929C175.923 72.4961 171.108 86.72 164.371 81.4764C161.884 78.3684 164.094 74.376 164.301 70.717C161.52 74.6837 159.458 80.8702 154.125 82.3375C151.026 82.9405 149.232 80.9129 148.663 78.181C146.797 69.2268 154.526 52.908 163.946 51.1232Z"
          fill="#FCFBFC"
        />
        <path
          d="M164.453 52.4672C169.089 52.156 167.068 59.8715 166.186 62.3085C164.391 67.2674 160.473 76.8289 155.562 79.3245C152.267 80.0454 152.661 76.2206 152.77 74.0817C153.093 67.7179 157.772 54.3325 164.453 52.4672Z"
          fill="#1B1724"
        />
        <path
          d="M270.523 51.1147C275.058 50.8602 277.378 52.4656 279.008 56.7666C282.262 65.3546 276.424 79.9873 267.173 82.3015C251.658 84.3085 256.297 54.1701 270.523 51.1147Z"
          fill="#FCFBFC"
        />
        <path
          d="M270.961 52.4755C274.193 52.0786 275.202 54.3163 275.572 57.0956C276.494 64.0462 273.394 78.5168 266.234 81.049C256.909 81.7241 262.586 56.0527 270.961 52.4755Z"
          fill="#1B1724"
        />
        <path
          d="M193.969 81.8885C194.576 76.1144 203.335 44.3993 202.869 42.5713C202.557 41.3468 200.17 41.7367 199.279 41.1757C199.161 41.1015 199.168 40.9411 199.141 40.8082L199.319 40.5538C200.912 39.6391 203.282 39.2705 205.009 38.5411C205.736 38.2345 207.189 37.0975 207.816 37.6625C207.916 38.9432 207.073 42.0444 206.737 43.4686L203.75 56.2546C203.328 58.1012 202.467 61.3693 202.396 63.1207C202.996 62.3227 203.407 61.55 203.909 60.691C205.243 58.1463 206.392 56.448 208.149 54.1354C210.774 50.6803 218.683 48.9846 219.132 54.9944C219.43 58.9885 214.963 62.4279 211.822 64.1544C210.731 64.7539 208.731 65.6216 207.864 66.5321C207.808 66.805 207.825 67.0369 207.886 67.3081C208.305 69.1279 211.584 78.1445 212.921 78.9475C213.781 79.4638 214.706 79.1299 215.601 78.9041C217.169 76.3162 216.932 73.9824 217.774 71.2467C217.871 70.932 218.043 70.9222 218.296 70.8363L218.711 71.0647C218.666 72.1716 218.632 73.2788 218.611 74.3864C218.447 75.8242 218.082 77.3321 217.527 78.6684C216.877 80.2327 215.964 81.4419 214.364 82.092C213.358 82.5005 212.266 82.5831 211.255 82.1341C207.773 80.5896 206.231 73.2809 204.872 69.8881C204.583 69.1635 204.067 67.8876 203.298 67.581C202.986 67.4571 202.768 67.4643 202.463 67.6066C200.637 68.4583 198.246 79.6265 197.475 81.9205C196.258 81.9557 195.179 81.9276 193.969 81.8885Z"
          fill="#FCFBFC"
        />
        <path
          d="M213.063 52.8169C216.252 52.8025 215.484 56.1699 214.607 58.0937C212.847 61.9563 209.662 63.7387 205.828 65.1675C205.246 65.3539 204.189 65.6974 203.618 65.4697L203.484 65.101C203.548 64.5915 203.798 63.9643 204.053 63.5237C206.08 60.0476 209.058 54.1054 213.063 52.8169Z"
          fill="#1B1724"
        />
        <path
          d="M219.005 71.165C219.763 64.187 222.976 58.0257 228.248 53.3587C232.29 49.78 240.464 49.8892 239.378 56.9767C238.409 63.2933 231.951 66.9132 226.396 68.5363C224.951 69.019 223.063 69.2894 222.952 71.135C222.845 72.9178 222.993 76.4534 224.211 77.8373C227.965 82.1045 232.559 76.8506 234.288 74.0722C234.588 74.4763 234.838 74.5389 235.363 74.5096C233.289 79.0968 228.86 84.1008 223.096 81.8791C220.347 80.8195 219.3 77.5822 218.99 74.8498L218.611 74.3861C218.632 73.2785 218.666 72.1713 218.711 71.0644L219.005 71.165Z"
          fill="#FCFBFC"
        />
        <path
          d="M218.711 71.0645L219.005 71.1651L218.99 74.8499L218.611 74.3862C218.632 73.2786 218.666 72.1714 218.711 71.0645Z"
          fill="#9C97AE"
        />
        <path
          d="M233.331 52.4618C237.214 52.2302 235.685 57.2569 234.878 59.3212C233.343 63.2497 229.736 65.7128 225.961 67.2213C225.167 67.5109 224.523 67.9197 223.78 67.4413C223.036 64.8424 228.327 55.8136 230.452 53.9572C231.107 53.3855 232.517 52.7723 233.331 52.4618Z"
          fill="#1B1724"
        />
        <path
          d="M140.361 61.3438C142.853 58.1304 143.631 52.4015 148.108 51.1734C150.129 50.619 152.289 51.3963 152.795 53.6333C153.003 54.5255 152.84 55.4638 152.344 56.2338C149.542 60.5058 148.097 55.1713 147.028 54.4422C143.516 54.6085 138.399 71.342 137.538 74.6153C136.941 76.8889 136.287 80.0132 135.079 81.936C134.131 81.9173 133.11 82.118 132.235 81.9221C131.946 81.6853 131.626 81.3678 131.713 80.9484C132.668 76.3482 133.903 71.4701 134.956 66.9205C135.483 64.6458 138.217 56.6453 137.403 54.8811C134.301 51.6857 131.54 62.1265 130.201 62.8268C128.949 62.0736 131.315 57.5759 131.855 56.4013C133.096 53.7047 134.69 52.0361 137.524 51.0903C143.823 50.8011 140.911 57.6209 140.361 61.3438Z"
          fill="#FCFBFC"
        />
        <path
          d="M249.1 61.4034C251.403 57.9875 252.488 51.9568 257.217 51.0576C259.169 50.6865 260.936 51.755 261.22 53.8032C261.36 54.8198 261.085 55.8504 260.456 56.6601C257.88 59.9819 257.029 55.5933 255.716 54.479C252.644 53.9916 246.694 71.7796 245.918 74.7102C245.33 76.9055 244.633 79.8768 243.848 81.9163C242.508 81.9444 241.568 81.9655 240.221 81.8356C240.438 80.0678 241.158 77.4297 241.574 75.6081C242.551 71.3186 243.557 67.036 244.594 62.7606C244.883 61.5453 246.677 55.2756 245.541 54.6312C242.279 52.7812 240.33 62.4882 238.651 62.7618L238.447 62.5152C238.471 61.2064 239.049 59.7378 239.566 58.5323C240.987 55.2201 242.275 52.5479 245.749 51.1104C252.762 50.608 249.41 57.3722 249.1 61.4034Z"
          fill="#FCFBFC"
        />
        <path
          d="M124.455 43.1108C125.592 43.1122 126.763 43.1527 127.902 43.1775C127.663 45.4978 126.634 48.5134 126.501 50.6758C126.417 52.0212 129.988 50.8754 131.118 51.5756C131.394 52.1448 131.335 51.9235 131.237 52.6152C130.386 53.4173 128.103 52.8271 126.957 52.9694C126.597 53.0141 126.182 53.1519 125.955 53.4476C125.065 54.6074 121.108 73.1912 120.699 75.6519C120.554 76.525 120.448 77.448 120.577 78.3293C123.699 82.1964 126.441 73.022 127.118 71.131C127.584 70.7558 127.374 70.8116 127.937 70.8698L128.159 71.2301C128.23 72.054 127.924 72.8719 127.692 73.6754C126.813 76.4458 125.766 79.2176 123.476 81.1832C120.792 83.4869 116.194 82.7052 116.226 78.5102C116.18 76.2958 116.928 74.1682 117.296 72.0262C118.373 65.7475 120.942 59.3552 121.636 53.0803C120.457 52.9522 118.941 53.1216 117.895 52.7254C117.631 52.3529 117.708 52.4696 117.729 51.932C119.137 50.3827 121.995 52.7319 122.792 49.4338C123.159 47.9124 123.625 44.0954 124.455 43.1108Z"
          fill="#FCFBFC"
        />
        <path
          d="M188.755 51.1341C191.721 50.8274 192.955 51.3043 195.393 52.7532C195.193 54.2695 194.038 60.9475 193.416 62.052C193.017 62.3266 193.196 62.2821 192.744 62.2449C191.891 61.4997 192.016 57.3597 191.812 56.0525C190.782 49.4328 186.289 53.4725 184.024 56.7372C180.325 62.0685 178.823 68.4904 179.624 74.9284C179.785 76.2173 180.568 77.9508 181.724 78.6809C185.355 80.6525 187.9 78.4543 189.792 75.6806C190.911 73.7674 191.488 71.5569 192.348 70.1937C192.799 69.9182 192.641 69.9218 193.077 70.0048C193.095 70.044 193.176 70.2057 193.176 70.2369C193.077 74.9726 189.651 80.8711 184.896 82.1501C179.418 83.5485 175.801 79.4707 175.36 74.3071C174.636 65.8178 179.978 53.4873 188.755 51.1341Z"
          fill="#FCFBFC"
        />
        <path
          d="M281.417 76.2928C285.53 76.1982 285.874 81.157 281.714 82.4788C277.534 82.4572 277.178 77.908 281.417 76.2928Z"
          fill="#7B3AEE"
        />
        <path
          d="M234.289 74.0723C234.768 72.9097 235.102 71.7922 236.023 70.9395L236.287 70.9102C236.607 71.7802 235.843 73.4809 235.473 74.2828C235.438 74.3591 235.401 74.4347 235.363 74.5096C234.839 74.539 234.588 74.4764 234.289 74.0723Z"
          fill="#040305"
        />
      </g>
    </svg>
